<svg width="76" height="76" viewBox="0 0 76 76" fill="none" xmlns="http://www.w3.org/2000/svg">
<rect width="76" height="76" rx="15" fill="#01AA31" fill-opacity="0.1"/>
<path d="M55.8852 36.5839V38.21C55.883 42.0215 54.6488 45.7301 52.3667 48.7829C50.0845 51.8356 46.8767 54.0688 43.2217 55.1495C39.5666 56.2302 35.6601 56.1004 32.0848 54.7796C28.5096 53.4587 25.457 51.0175 23.3825 47.82C21.308 44.6225 20.3227 40.8401 20.5735 37.0369C20.8243 33.2337 22.2977 29.6134 24.7741 26.7161C27.2505 23.8187 30.5972 21.7994 34.3149 20.9594C38.0327 20.1195 41.9224 20.5038 45.4039 22.055" stroke="#01AA31" stroke-width="2" stroke-linecap="round" stroke-linejoin="round"/>
<path d="M55.8852 24.07L38.2102 41.7627L32.9077 36.4602" stroke="#01AA31" stroke-width="2" stroke-linecap="round" stroke-linejoin="round"/>
</svg>
