<svg width="27" height="28" viewBox="0 0 27 28" fill="none" xmlns="http://www.w3.org/2000/svg">
<path d="M7.84056 1V4.89627M18.2238 1V4.89627M2 10.2082H24.0643M22.39 18.8839L17.7955 23.4815C17.6138 23.6633 17.445 24.001 17.4061 24.2478L17.1595 26.0011C17.0686 26.6375 17.5099 27.0791 18.1459 26.9881L19.8981 26.7414C20.1447 26.7024 20.4951 26.5336 20.6638 26.3517L25.2584 21.7541C26.0501 20.9619 26.4265 20.0398 25.2584 18.8709C24.1033 17.715 23.1818 18.0916 22.39 18.8839Z" stroke="#4E4E4E" stroke-width="1.5" stroke-miterlimit="10" stroke-linecap="round" stroke-linejoin="round"/>
<path d="M21.0611 19.5795C21.4444 20.9805 22.5178 22.0703 23.8978 22.4595M12.5 27H7.38889C2.91667 27 1 24.4054 1 20.5135V9.48649C1 5.59459 2.91667 3 7.38889 3H17.6111C22.0833 3 24 5.59459 24 9.48649V14.027" stroke="#4E4E4E" stroke-width="1.5" stroke-miterlimit="10" stroke-linecap="round" stroke-linejoin="round"/>
<path d="M11.9892 17H12M8 17H8.01078M8 20H8.01078" stroke="#4E4E4E" stroke-width="2" stroke-linecap="round" stroke-linejoin="round"/>
</svg>
