<svg width="19" height="19" viewBox="0 0 19 19" fill="none" xmlns="http://www.w3.org/2000/svg">
<g clip-path="url(#clip0_1295_612)">
<path d="M8.70801 1.58325H7.12467C3.16634 1.58325 1.58301 3.16659 1.58301 7.12492V11.8749C1.58301 15.8333 3.16634 17.4166 7.12467 17.4166H11.8747C15.833 17.4166 17.4163 15.8333 17.4163 11.8749V10.2916" stroke="black" stroke-width="1.5" stroke-linecap="round" stroke-linejoin="round"/>
<path d="M12.698 2.39091L6.45966 8.62924C6.22216 8.86674 5.98466 9.33383 5.93716 9.67425L5.59674 12.0572C5.47008 12.9201 6.07966 13.5217 6.94258 13.403L9.32549 13.0626C9.65799 13.0151 10.1251 12.7776 10.3705 12.5401L16.6088 6.30174C17.6855 5.22508 18.1922 3.97424 16.6088 2.39091C15.0255 0.807578 13.7747 1.31424 12.698 2.39091Z" stroke="black" stroke-width="1.5" stroke-miterlimit="10" stroke-linecap="round" stroke-linejoin="round"/>
<path d="M11.8037 3.2854C12.0662 4.21756 12.5637 5.0667 13.2485 5.75148C13.9332 6.43625 14.7824 6.93372 15.7145 7.19623" stroke="black" stroke-width="1.5" stroke-miterlimit="10" stroke-linecap="round" stroke-linejoin="round"/>
</g>
<defs>
<clipPath id="clip0_1295_612">
<rect width="19" height="19" fill="white"/>
</clipPath>
</defs>
</svg>
