<svg width="30" height="31" viewBox="0 0 30 31" fill="none" xmlns="http://www.w3.org/2000/svg">
<circle cx="15" cy="15.8857" r="15" fill="black"/>
<path d="M20.7143 22.314V20.8855C20.7143 20.1277 20.4133 19.401 19.8774 18.8652C19.3416 18.3293 18.6149 18.0283 17.8571 18.0283H12.1428C11.3851 18.0283 10.6584 18.3293 10.1225 18.8652C9.58672 19.401 9.28571 20.1277 9.28571 20.8855V22.314" stroke="white" stroke-width="2" stroke-linecap="round" stroke-linejoin="round"/>
<path d="M15 15.1713C16.578 15.1713 17.8571 13.8921 17.8571 12.3142C17.8571 10.7362 16.578 9.45703 15 9.45703C13.422 9.45703 12.1429 10.7362 12.1429 12.3142C12.1429 13.8921 13.422 15.1713 15 15.1713Z" stroke="white" stroke-width="2" stroke-linecap="round" stroke-linejoin="round"/>
</svg>
