<svg width="76" height="76" viewBox="0 0 76 76" fill="none" xmlns="http://www.w3.org/2000/svg">
<rect width="76" height="76" rx="15" fill="#C1121F" fill-opacity="0.1"/>
<path d="M47.0476 54.1175V50.5825C47.0476 48.7074 46.3027 46.9092 44.9768 45.5833C43.6509 44.2574 41.8527 43.5125 39.9776 43.5125H25.8376C23.9625 43.5125 22.1642 44.2574 20.8383 45.5833C19.5125 46.9092 18.7676 48.7074 18.7676 50.5825V54.1175" stroke="#C1121F" stroke-width="2" stroke-linecap="round" stroke-linejoin="round"/>
<path d="M32.9074 36.4425C36.8121 36.4425 39.9774 33.2771 39.9774 29.3725C39.9774 25.4678 36.8121 22.3025 32.9074 22.3025C29.0027 22.3025 25.8374 25.4678 25.8374 29.3725C25.8374 33.2771 29.0027 36.4425 32.9074 36.4425Z" stroke="#C1121F" stroke-width="2" stroke-linecap="round" stroke-linejoin="round"/>
<path d="M57.6526 54.1175V50.5825C57.6514 49.016 57.13 47.4942 56.1703 46.2562C55.2106 45.0181 53.8668 44.1339 52.3501 43.7422" stroke="#C1121F" stroke-width="2" stroke-linecap="round" stroke-linejoin="round"/>
<path d="M45.2798 22.5323C46.8006 22.9217 48.1485 23.8061 49.1111 25.0462C50.0737 26.2863 50.5961 27.8115 50.5961 29.3813C50.5961 30.9512 50.0737 32.4764 49.1111 33.7165C48.1485 34.9566 46.8006 35.841 45.2798 36.2304" stroke="#C1121F" stroke-width="2" stroke-linecap="round" stroke-linejoin="round"/>
</svg>
