<svg width="19" height="19" viewBox="0 0 19 19" fill="none" xmlns="http://www.w3.org/2000/svg">
<path d="M16.625 4.73409C13.9888 4.47284 11.3367 4.33825 8.6925 4.33825C7.125 4.33825 5.5575 4.41742 3.99 4.57575L2.375 4.73409M6.72917 3.9345L6.90333 2.89742C7.03 2.14534 7.125 1.58325 8.46292 1.58325H10.5371C11.875 1.58325 11.9779 2.177 12.0967 2.90534L12.2708 3.9345M14.9229 7.23575L14.4083 15.2078C14.3213 16.4508 14.25 17.4166 12.0413 17.4166H6.95875C4.75 17.4166 4.67875 16.4508 4.59167 15.2078L4.07708 7.23575M8.17792 13.0624H10.8142M7.52083 9.89575H11.4792" stroke="black" stroke-width="1.5" stroke-linecap="round" stroke-linejoin="round"/>
</svg>
